<?xml version="1.0" encoding="utf-8" standalone="no"?>
<!DOCTYPE svg PUBLIC "-//W3C//DTD SVG 1.1//EN"
  "http://www.w3.org/Graphics/SVG/1.1/DTD/svg11.dtd">
<svg role="img" aria-labelledby="title desc" xmlns:xlink="http://www.w3.org/1999/xlink" width="864pt" height="345.6pt" viewBox="0 0 864 345.6" xmlns="http://www.w3.org/2000/svg" version="1.1">
 <title id="title">Alpha158 RankIC comparison</title>
 <desc id="desc">Observed baseline and enhanced RankIC in selection and confirmation periods. Selection: 0.0876 to 0.0974. Confirmation: 0.0915 to 0.0967.</desc>
 <metadata>
  <rdf:RDF xmlns:dc="http://purl.org/dc/elements/1.1/" xmlns:cc="http://creativecommons.org/ns#" xmlns:rdf="http://www.w3.org/1999/02/22-rdf-syntax-ns#">
   <cc:Work>
    <dc:type rdf:resource="http://purl.org/dc/dcmitype/StillImage"/>
    <dc:format>image/svg+xml</dc:format>
    <dc:creator>
     <cc:Agent>
      <dc:title>Matplotlib v3.10.6, https://matplotlib.org/</dc:title>
     </cc:Agent>
    </dc:creator>
   </cc:Work>
  </rdf:RDF>
 </metadata>
 <defs>
  <style type="text/css">*{stroke-linejoin: round; stroke-linecap: butt}</style>
 </defs>
 <g id="figure_1">
  <g id="patch_1">
   <path d="M 0 345.6 L 864 345.6 L 864 0 L 0 0 z" style="fill: #ffffff"/>
  </g>
  <g id="patch_2">
   <path d="M 44.928 338.688 L 819.072 338.688 Q 857.952 338.688 857.952 323.136 L 857.952 22.464 Q 857.952 6.912 819.072 6.912 L 44.928 6.912 Q 6.048 6.912 6.048 22.464 L 6.048 323.136 Q 6.048 338.688 44.928 338.688 z" style="fill: #f5f8fc; stroke: #a5b1bf; stroke-width: 1.4; stroke-linejoin: miter"/>
  </g>
  <g id="patch_3">
   <path d="M 50.112 278.8992 L 813.888 278.8992 Q 826.848 278.8992 826.848 273.7152 L 826.848 96.0768 Q 826.848 90.8928 813.888 90.8928 L 50.112 90.8928 Q 37.152 90.8928 37.152 96.0768 L 37.152 273.7152 Q 37.152 278.8992 50.112 278.8992 z" style="fill: #ffffff; stroke-dasharray: 8.4,5.6; stroke-dashoffset: 0; stroke: #dce5ef; stroke-width: 1.4; stroke-linejoin: miter"/>
  </g>
  <g id="axes_1">
   <g id="patch_4">
    <path d="M 198.72 238.464 L 760.32 238.464 L 760.32 145.152 L 198.72 145.152 L 198.72 238.464 z" style="fill: none"/>
   </g>
   <g id="matplotlib.axis_1">
    <g id="xtick_1">
     <g id="line2d_1">
      <path d="M 231.755294 238.464 L 231.755294 145.152" clip-path="url(#p79b9354eeb)" style="fill: none; stroke-dasharray: 4,3.2; stroke-dashoffset: 0; stroke: #edf1f6; stroke-width: 0.8"/>
     </g>
     <g id="line2d_2"/>
     <g id="text_1">
      <text style="font-size: 11px; font-family: 'Comic Sans MS', 'Chalkboard SE', 'DejaVu Sans'; text-anchor: middle; fill: #6a7d91" x="231.755294" y="261.105875" transform="rotate(-0 231.755294 261.105875)">0.085</text>
     </g>
    </g>
    <g id="xtick_2">
     <g id="line2d_3">
      <path d="M 396.931765 238.464 L 396.931765 145.152" clip-path="url(#p79b9354eeb)" style="fill: none; stroke-dasharray: 4,3.2; stroke-dashoffset: 0; stroke: #edf1f6; stroke-width: 0.8"/>
     </g>
     <g id="line2d_4"/>
     <g id="text_2">
      <text style="font-size: 11px; font-family: 'Comic Sans MS', 'Chalkboard SE', 'DejaVu Sans'; text-anchor: middle; fill: #6a7d91" x="396.931765" y="261.105875" transform="rotate(-0 396.931765 261.105875)">0.090</text>
     </g>
    </g>
    <g id="xtick_3">
     <g id="line2d_5">
      <path d="M 562.108235 238.464 L 562.108235 145.152" clip-path="url(#p79b9354eeb)" style="fill: none; stroke-dasharray: 4,3.2; stroke-dashoffset: 0; stroke: #edf1f6; stroke-width: 0.8"/>
     </g>
     <g id="line2d_6"/>
     <g id="text_3">
      <text style="font-size: 11px; font-family: 'Comic Sans MS', 'Chalkboard SE', 'DejaVu Sans'; text-anchor: middle; fill: #6a7d91" x="562.108235" y="261.105875" transform="rotate(-0 562.108235 261.105875)">0.095</text>
     </g>
    </g>
    <g id="xtick_4">
     <g id="line2d_7">
      <path d="M 727.284706 238.464 L 727.284706 145.152" clip-path="url(#p79b9354eeb)" style="fill: none; stroke-dasharray: 4,3.2; stroke-dashoffset: 0; stroke: #edf1f6; stroke-width: 0.8"/>
     </g>
     <g id="line2d_8"/>
     <g id="text_4">
      <text style="font-size: 11px; font-family: 'Comic Sans MS', 'Chalkboard SE', 'DejaVu Sans'; text-anchor: middle; fill: #6a7d91" x="727.284706" y="261.105875" transform="rotate(-0 727.284706 261.105875)">0.100</text>
     </g>
    </g>
   </g>
   <g id="matplotlib.axis_2">
    <g id="ytick_1">
     <g id="line2d_9"/>
     <g id="text_5">
      <text style="font-size: 11px; font-family: 'Comic Sans MS', 'Chalkboard SE', 'DejaVu Sans'; fill: #6a7d91" transform="translate(136.565781 165.691586)">Selection</text>
      <text style="font-size: 11px; font-family: 'Comic Sans MS', 'Chalkboard SE', 'DejaVu Sans'; fill: #6a7d91" transform="translate(126.157031 179.183086)">2023–2024</text>
     </g>
    </g>
    <g id="ytick_2">
     <g id="line2d_10"/>
     <g id="text_6">
      <text style="font-size: 11px; font-family: 'Comic Sans MS', 'Chalkboard SE', 'DejaVu Sans'; fill: #6a7d91" transform="translate(118.604844 214.803164)">Confirmation</text>
      <text style="font-size: 11px; font-family: 'Comic Sans MS', 'Chalkboard SE', 'DejaVu Sans'; fill: #6a7d91" transform="translate(126.157031 228.294664)">2025–2026</text>
     </g>
    </g>
   </g>
   <g id="line2d_11">
    <path d="M 318.955468 167.252211 L 641.5353 167.252211" clip-path="url(#p79b9354eeb)" style="fill: none; stroke: #c5d4e6; stroke-width: 3; stroke-linecap: square"/>
   </g>
   <g id="line2d_12">
    <path d="M 446.285815 216.363789 L 619.170102 216.363789" clip-path="url(#p79b9354eeb)" style="fill: none; stroke: #c5d4e6; stroke-width: 3; stroke-linecap: square"/>
   </g>
   <g id="PathCollection_1">
    <defs>
     <path id="C0_0_b299edb8f7" d="M 0 5 C 1.326016 5 2.597899 4.473168 3.535534 3.535534 C 4.473168 2.597899 5 1.326016 5 -0 C 5 -1.326016 4.473168 -2.597899 3.535534 -3.535534 C 2.597899 -4.473168 1.326016 -5 0 -5 C -1.326016 -5 -2.597899 -4.473168 -3.535534 -3.535534 C -4.473168 -2.597899 -5 -1.326016 -5 0 C -5 1.326016 -4.473168 2.597899 -3.535534 3.535534 C -2.597899 4.473168 -1.326016 5 0 5 z"/>
    </defs>
    <g clip-path="url(#p79b9354eeb)">
     <use xlink:href="#C0_0_b299edb8f7" x="318.955468" y="167.252211" style="fill: #6683b3; stroke: #ffffff; stroke-width: 2"/>
    </g>
    <g clip-path="url(#p79b9354eeb)">
     <use xlink:href="#C0_0_b299edb8f7" x="641.5353" y="167.252211" style="fill: #0b9b83; stroke: #ffffff; stroke-width: 2"/>
    </g>
   </g>
   <g id="text_7">
    <text style="font-weight: 700; font-size: 12px; font-family: 'Comic Sans MS', 'Chalkboard SE', 'DejaVu Sans'; text-anchor: middle; fill: #6683b3" x="318.955468" y="154.252211" transform="rotate(-0 318.955468 154.252211)">0.0876</text>
   </g>
   <g id="text_8">
    <text style="font-weight: 700; font-size: 12px; font-family: 'Comic Sans MS', 'Chalkboard SE', 'DejaVu Sans'; text-anchor: middle; fill: #0b9b83" x="641.5353" y="191.252211" transform="rotate(-0 641.5353 191.252211)">0.0974</text>
   </g>
   <g id="text_9">
    <text style="font-weight: 700; font-size: 12px; font-family: 'Comic Sans MS', 'Chalkboard SE', 'DejaVu Sans'; text-anchor: end; fill: #0b9b83" x="760.32" y="153.992084" transform="rotate(-0 760.32 153.992084)">Δ +0.0098</text>
   </g>
   <g id="PathCollection_2">
    <defs>
     <path id="C1_0_21515f8047" d="M 0 5 C 1.326016 5 2.597899 4.473168 3.535534 3.535534 C 4.473168 2.597899 5 1.326016 5 -0 C 5 -1.326016 4.473168 -2.597899 3.535534 -3.535534 C 2.597899 -4.473168 1.326016 -5 0 -5 C -1.326016 -5 -2.597899 -4.473168 -3.535534 -3.535534 C -4.473168 -2.597899 -5 -1.326016 -5 0 C -5 1.326016 -4.473168 2.597899 -3.535534 3.535534 C -2.597899 4.473168 -1.326016 5 0 5 z"/>
    </defs>
    <g clip-path="url(#p79b9354eeb)">
     <use xlink:href="#C1_0_21515f8047" x="446.285815" y="216.363789" style="fill: #6683b3; stroke: #ffffff; stroke-width: 2"/>
    </g>
    <g clip-path="url(#p79b9354eeb)">
     <use xlink:href="#C1_0_21515f8047" x="619.170102" y="216.363789" style="fill: #0b9b83; stroke: #ffffff; stroke-width: 2"/>
    </g>
   </g>
   <g id="text_10">
    <text style="font-weight: 700; font-size: 12px; font-family: 'Comic Sans MS', 'Chalkboard SE', 'DejaVu Sans'; text-anchor: middle; fill: #6683b3" x="446.285815" y="203.363789" transform="rotate(-0 446.285815 203.363789)">0.0915</text>
   </g>
   <g id="text_11">
    <text style="font-weight: 700; font-size: 12px; font-family: 'Comic Sans MS', 'Chalkboard SE', 'DejaVu Sans'; text-anchor: middle; fill: #0b9b83" x="619.170102" y="240.363789" transform="rotate(-0 619.170102 240.363789)">0.0967</text>
   </g>
   <g id="text_12">
    <text style="font-weight: 700; font-size: 12px; font-family: 'Comic Sans MS', 'Chalkboard SE', 'DejaVu Sans'; text-anchor: end; fill: #0b9b83" x="760.32" y="203.103663" transform="rotate(-0 760.32 203.103663)">Δ +0.0052</text>
   </g>
  </g>
  <g id="text_13">
   <text style="font-weight: 700; font-size: 25px; font-family: 'Comic Sans MS', 'Chalkboard SE', 'DejaVu Sans'; text-anchor: start; fill: #18324b" x="56.16" y="51.84" transform="rotate(-0 56.16 51.84)">RankIC</text>
  </g>
  <g id="text_14">
   <text style="font-size: 11px; font-family: 'Comic Sans MS', 'Chalkboard SE', 'DejaVu Sans'; text-anchor: start; fill: #6a7d91" x="56.16" y="74.304" transform="rotate(-0 56.16 74.304)">Selection: 2023–2024  /  Confirmation: 2025-01-01 – 2026-09-30</text>
  </g>
  <g id="text_15">
   <text style="font-size: 12px; font-family: 'Comic Sans MS', 'Chalkboard SE', 'DejaVu Sans'; text-anchor: start; fill: #6a7d91" x="56.16" y="113.3568" transform="rotate(-0 56.16 113.3568)">Mean daily rank correlation</text>
  </g>
  <g id="text_16">
   <text style="font-size: 10px; font-family: 'Comic Sans MS', 'Chalkboard SE', 'DejaVu Sans'; text-anchor: start; fill: #6a7d91" x="56.16" y="297.216" transform="rotate(-0 56.16 297.216)">Detail scale: RankIC 0.084–0.101. Dots show observed values.</text>
  </g>
  <g id="text_17">
   <text style="font-size: 10px; font-family: 'Comic Sans MS', 'Chalkboard SE', 'DejaVu Sans'; text-anchor: start; fill: #6a7d91" x="56.16" y="314.496" transform="rotate(-0 56.16 314.496)">Source: selection_metrics.json / confirmation_metrics.json · Enhanced variant locked before confirmation.</text>
  </g>
  <g id="legend_1">
   <g id="line2d_13">
    <defs>
     <path id="m81b0ba0480" d="M 0 3 C 0.795609 3 1.55874 2.683901 2.12132 2.12132 C 2.683901 1.55874 3 0.795609 3 0 C 3 -0.795609 2.683901 -1.55874 2.12132 -2.12132 C 1.55874 -2.683901 0.795609 -3 0 -3 C -0.795609 -3 -1.55874 -2.683901 -2.12132 -2.12132 C -2.683901 -1.55874 -3 -0.795609 -3 0 C -3 0.795609 -2.683901 1.55874 -2.12132 2.12132 C -1.55874 2.683901 -0.795609 3 0 3 z" style="stroke: #6683b3"/>
    </defs>
    <g>
     <use xlink:href="#m81b0ba0480" x="482.254531" y="44.067875" style="fill: #6683b3; stroke: #6683b3"/>
    </g>
   </g>
   <g id="text_18">
    <text style="font-size: 11px; font-family: 'Comic Sans MS', 'Chalkboard SE', 'DejaVu Sans'; text-anchor: start; fill: #18324b" x="502.054531" y="47.917875" transform="rotate(-0 502.054531 47.917875)">Alpha158 · 158 features</text>
   </g>
   <g id="line2d_14">
    <defs>
     <path id="mee4a80da21" d="M 0 3 C 0.795609 3 1.55874 2.683901 2.12132 2.12132 C 2.683901 1.55874 3 0.795609 3 0 C 3 -0.795609 2.683901 -1.55874 2.12132 -2.12132 C 1.55874 -2.683901 0.795609 -3 0 -3 C -0.795609 -3 -1.55874 -2.683901 -2.12132 -2.12132 C -2.683901 -1.55874 -3 -0.795609 -3 0 C -3 0.795609 -2.683901 1.55874 -2.12132 2.12132 C -1.55874 2.683901 -0.795609 3 0 3 z" style="stroke: #0b9b83"/>
    </defs>
    <g>
     <use xlink:href="#mee4a80da21" x="658.154844" y="44.067875" style="fill: #0b9b83; stroke: #0b9b83"/>
    </g>
   </g>
   <g id="text_19">
    <text style="font-size: 11px; font-family: 'Comic Sans MS', 'Chalkboard SE', 'DejaVu Sans'; text-anchor: start; fill: #18324b" x="677.954844" y="47.917875" transform="rotate(-0 677.954844 47.917875)">Enhanced · 184 features</text>
   </g>
  </g>
 </g>
 <defs>
  <clipPath id="p79b9354eeb">
   <rect x="198.72" y="145.152" width="561.6" height="93.312"/>
  </clipPath>
 </defs>
</svg>
